{"title":"Doctor Who 2005 S08E04 Listen X265","uid":11042290,"size":306679919,"categoryP":"video","categoryS":"hd___tv_shows","magnet":"?xt=urn:btih:f5e25f642cbd87112fc1ed0731494cd7fce81a81&amp;dn=Doctor+Who+2005+S08E04+Listen+X265&amp;tr=udp%3A%2F%2Ftracker.openbittorrent.com%3A80&amp;tr=udp%3A%2F%2Fopen.demonii.com%3A1337&amp;tr=udp%3A%2F%2Ftracker.coppersurfer.tk%3A6969&amp;tr=udp%3A%2F%2Fexodus.desync.com%3A6969","seeders":0,"leechers":0,"uploader":"atm50","files":-1,"time":1410883430,"description":"When ghosts of past and future crowd into their lives, the Doctor and Clara are thrown into an adventure that takes them to the very end of the universe.\n\nSource: Doctor Who 2005 8x04 Listen 720p HDTV x264-FoV [eztv]\n\nFormat                         : Matroska\nFile size                      : 292 MiB\nDuration                       : 47mn 21s\nOverall bit rate               : 863 Kbps\n\nVideo\n\nFormat                         : HEVC [X265]\nBit rate                       : 590 Kbps\nWidth                          : 1 280 pixels\nHeight                         : 720 pixels\nDisplay aspect ratio           : 16:9\nFrame rate                     : 25.000 fps\nStream size                    : 200 MiB (68%)\n\nAudio\n\nFormat                         : AC-3\nBit rate                       : 256 Kbps\nChannel(s)                     : 6 channels (5.1)\nSampling rate                  : 48.0 KHz\nBit depth                      : 16 bits\nCompression mode               : Lossy\nStream size                    : 86.7 MiB (30%)","torrent":{"xt":"urn:btih:f5e25f642cbd87112fc1ed0731494cd7fce81a81","amp;dn":"Doctor+Who+2005+S08E04+Listen+X265","amp;tr":["udp%3A%2F%2Ftracker.openbittorrent.com%3A80","udp%3A%2F%2Fopen.demonii.com%3A1337","udp%3A%2F%2Ftracker.coppersurfer.tk%3A6969","udp%3A%2F%2Fexodus.desync.com%3A6969"],"infoHash":"f5e25f642cbd87112fc1ed0731494cd7fce81a81","infoHashBuffer":{"type":"Buffer","data":[245,226,95,100,44,189,135,17,47,193,237,7,49,73,76,215,252,232,26,129]},"announce":[],"urlList":[]}}